<svg width="96" height="96" viewBox="0 0 96 96" fill="none" xmlns="http://www.w3.org/2000/svg">
  <rect width="96" height="96" rx="22" fill="#081120"/>
  <path d="M48 13L75 24V44C75 62.5 63.7 75.8 48 83C32.3 75.8 21 62.5 21 44V24L48 13Z" fill="#111C33" stroke="#8B5CF6" stroke-width="4" stroke-linejoin="round"/>
  <path d="M31 45C31 35.6 38.6 28 48 28C57.4 28 65 35.6 65 45" stroke="#22D3EE" stroke-width="6" stroke-linecap="round"/>
  <path d="M65 45C65 54.4 57.4 62 48 62C44.2 62 40.7 60.8 37.9 58.6" stroke="#34D399" stroke-width="6" stroke-linecap="round"/>
  <path d="M39 45H31M35 41V49" stroke="#F8FAFC" stroke-width="5" stroke-linecap="round"/>
  <circle cx="57" cy="42" r="3.5" fill="#F43F5E"/>
  <circle cx="64" cy="49" r="3.5" fill="#A78BFA"/>
  <path d="M42 68H54" stroke="#F8FAFC" stroke-width="5" stroke-linecap="round"/>
</svg>
